<?xml version="1.0" standalone="no"?>
<!DOCTYPE svg PUBLIC "-//W3C//DTD SVG 20010904//EN"
 "http://www.w3.org/TR/2001/REC-SVG-20010904/DTD/svg10.dtd">
<svg version="1.0" xmlns="http://www.w3.org/2000/svg"
 width="600.000000pt" height="600.000000pt" viewBox="0 0 600.000000 600.000000"
 preserveAspectRatio="xMidYMid meet">

<g transform="translate(0.000000,600.000000) scale(0.100000,-0.100000)"
fill="#000000" stroke="none">
<path d="M2655 5964 c-563 -68 -1095 -292 -1535 -648 -106 -86 -288 -264 -390
-382 -382 -442 -624 -999 -695 -1599 -18 -152 -21 -495 -5 -635 96 -859 509
-1585 1196 -2101 995 -747 2379 -782 3424 -88 1129 750 1610 2151 1181 3439
-111 332 -279 637 -505 919 -490 611 -1205 1004 -1991 1096 -163 19 -515 18
-680 -1z m295 -134 l0 -120 55 0 55 0 0 120 c0 109 2 120 18 120 10 0 79 -5
153 -11 274 -21 572 -88 824 -184 139 -53 385 -172 391 -190 3 -6 -20 -56 -51
-109 -31 -54 -55 -99 -53 -101 6 -5 47 -25 51 -25 3 0 31 44 62 98 31 53 58
99 60 100 7 7 234 -150 340 -235 140 -112 325 -297 438 -438 85 -105 247 -339
247 -356 0 -4 -45 -33 -100 -64 -55 -32 -100 -60 -100 -64 0 -3 8 -16 18 -28
l17 -23 97 56 c54 30 103 52 108 49 17 -11 104 -191 163 -340 116 -291 184
-598 203 -917 l7 -118 -122 0 -121 0 0 -55 0 -55 121 0 122 0 -7 -112 c-17
-274 -79 -579 -171 -833 -55 -154 -188 -435 -206 -435 -7 0 -55 25 -107 55
-52 31 -96 55 -97 53 -1 -2 -8 -14 -15 -27 -15 -30 -14 -31 108 -100 l83 -48
-79 -119 c-112 -169 -226 -309 -377 -459 -149 -150 -279 -257 -455 -374 l-123
-82 -48 83 c-69 122 -70 123 -100 108 -13 -7 -25 -14 -27 -15 -2 -1 22 -45 53
-97 30 -52 55 -100 55 -107 0 -17 -279 -150 -435 -206 -154 -56 -396 -118
-539 -139 -119 -18 -303 -36 -363 -36 l-43 0 0 120 0 120 -55 0 -55 0 0 -122
0 -121 -112 6 c-400 23 -772 121 -1136 298 l-143 70 20 32 c10 18 38 64 60
102 l40 70 -22 17 c-12 10 -25 18 -29 18 -4 0 -32 -45 -63 -100 -32 -55 -61
-100 -65 -100 -16 0 -251 163 -355 247 -141 113 -326 298 -438 438 -91 114
-237 325 -237 343 0 6 45 36 100 67 l100 57 -16 29 c-12 23 -18 27 -32 20 -9
-5 -56 -32 -104 -59 l-88 -51 -35 64 c-131 233 -257 610 -304 905 -19 115 -41
327 -41 393 l0 27 120 0 120 0 0 55 0 55 -121 0 -121 0 7 103 c28 432 125 798
307 1162 33 66 61 121 63 123 1 1 42 -20 91 -49 49 -28 96 -55 105 -59 11 -7
20 -1 32 20 l17 29 -100 56 c-55 32 -102 60 -104 64 -3 4 33 63 79 131 238
355 533 643 897 874 l57 36 57 -100 c31 -55 60 -102 64 -105 4 -3 18 3 31 14
l23 18 -58 102 c-32 56 -56 104 -54 106 12 12 260 130 343 163 314 125 675
201 998 211 l47 1 0 -120z"/>
<path d="M2699 5786 c-2 -3 -3 -25 -1 -51 3 -36 8 -45 21 -43 9 2 16 9 15 16
-1 6 -2 28 -2 47 -2 31 -18 46 -33 31z"/>
<path d="M3275 5744 c-7 -50 -4 -59 20 -51 20 8 22 97 1 97 -9 0 -16 -17 -21
-46z"/>
<path d="M2410 5718 c0 -39 12 -68 26 -68 8 0 14 10 14 23 0 38 -12 67 -26 67
-8 0 -14 -10 -14 -22z"/>
<path d="M3567 5723 c-18 -65 -18 -73 2 -73 13 0 20 9 24 37 4 20 4 40 1 45
-9 14 -22 9 -27 -9z"/>
<path d="M2127 5654 c-3 -3 -1 -18 4 -33 5 -14 12 -32 14 -38 2 -7 11 -10 18
-7 12 4 13 13 5 45 -10 36 -25 48 -41 33z"/>
<path d="M3840 5625 c-18 -54 8 -80 28 -27 22 59 22 62 2 62 -12 0 -22 -11
-30 -35z"/>
<path d="M4112 5527 c-11 -23 -17 -45 -15 -49 9 -17 32 -6 41 20 5 15 13 34
17 43 4 10 0 19 -9 22 -11 5 -21 -6 -34 -36z"/>
<path d="M1862 5551 c-11 -7 -11 -15 2 -45 8 -20 19 -36 25 -36 20 0 21 20 4
54 -13 25 -22 33 -31 27z"/>
<path d="M2797 5521 c-9 -15 -41 -41 -72 -57 -55 -29 -55 -29 -55 -77 l0 -47
38 15 c20 9 47 23 60 31 l22 14 0 -145 0 -145 60 0 60 0 0 220 0 220 -48 0
c-42 0 -50 -3 -65 -29z"/>
<path d="M3149 5541 c-63 -21 -99 -61 -99 -111 0 -16 6 -20 33 -20 17 0 42 -3
55 -6 18 -5 24 -1 33 25 20 57 99 50 99 -9 0 -23 -11 -38 -52 -72 -108 -91
-138 -121 -158 -162 -37 -78 -42 -76 155 -76 l175 0 0 50 0 49 -92 3 -93 3 67
48 c37 27 77 62 89 78 43 61 32 147 -25 184 -28 18 -149 29 -187 16z"/>
<path d="M1363 5263 c-18 -6 -16 -20 8 -53 19 -25 49 -32 49 -11 0 17 -46 67
-57 64z"/>
<path d="M4610 5240 c-13 -19 -19 -37 -15 -48 6 -14 11 -12 36 18 16 19 28 39
26 44 -7 21 -26 15 -47 -14z"/>
<path d="M4187 5201 c-9 -15 -41 -41 -72 -57 -55 -29 -55 -29 -55 -77 l0 -47
38 15 c20 9 47 23 60 31 l22 14 0 -145 0 -145 60 0 60 0 0 220 0 220 -48 0
c-42 0 -50 -3 -65 -29z"/>
<path d="M1627 5151 c-9 -15 -41 -41 -72 -57 -55 -29 -55 -29 -55 -77 l0 -47
38 15 c20 9 47 23 60 31 l22 14 0 -145 0 -145 60 0 60 0 0 220 0 220 -48 0
c-42 0 -50 -3 -65 -29z"/>
<path d="M2027 5151 c-9 -15 -41 -41 -72 -57 -55 -29 -55 -29 -55 -77 l0 -47
38 15 c20 9 47 23 60 31 l22 14 0 -145 0 -145 60 0 60 0 0 220 0 220 -48 0
c-42 0 -50 -3 -65 -29z"/>
<path d="M4834 5054 c-21 -26 -24 -38 -15 -47 8 -8 18 -3 41 23 34 40 35 46
15 54 -9 3 -25 -8 -41 -30z"/>
<path d="M1124 5069 c-3 -6 6 -24 22 -40 21 -22 30 -26 41 -17 11 9 9 16 -13
40 -30 30 -39 34 -50 17z"/>
<path d="M916 4875 c-8 -22 55 -77 72 -63 14 12 4 28 -39 58 -23 17 -28 18
-33 5z"/>
<path d="M5040 4855 c-27 -28 -31 -38 -22 -47 10 -10 20 -5 48 23 29 29 33 38
21 47 -11 9 -21 4 -47 -23z"/>
<path d="M736 4645 c-3 -9 8 -25 30 -42 29 -21 37 -24 44 -13 11 17 2 29 -38
52 -26 15 -31 16 -36 3z"/>
<path d="M5220 4630 c-27 -22 -32 -31 -23 -41 18 -18 89 37 72 57 -14 17 -7
19 -49 -16z"/>
<path d="M5019 4361 c-63 -21 -99 -61 -99 -111 0 -16 6 -20 33 -20 17 0 42 -3
55 -6 18 -5 24 -1 33 25 20 57 99 50 99 -9 0 -23 -11 -38 -52 -72 -108 -91
-138 -121 -158 -162 -37 -78 -42 -76 155 -76 l175 0 0 50 0 49 -92 3 -93 3 67
48 c37 27 77 62 89 78 43 61 32 147 -25 184 -28 18 -149 29 -187 16z"/>
<path d="M847 4261 c-9 -15 -41 -41 -72 -57 -55 -29 -55 -29 -55 -77 l0 -47
38 15 c20 9 47 23 60 31 l22 14 0 -145 0 -145 60 0 60 0 0 220 0 220 -48 0
c-42 0 -50 -3 -65 -29z"/>
<path d="M1197 4276 c-51 -19 -63 -31 -83 -81 -24 -65 -17 -243 12 -281 40
-55 70 -69 142 -69 137 1 177 56 170 236 -4 116 -13 139 -71 183 -33 25 -119
31 -170 12z m110 -93 c26 -39 26 -197 0 -236 -22 -34 -52 -34 -74 0 -27 40
-26 213 1 242 26 29 52 26 73 -6z"/>
<path d="M446 4142 c-15 -14 -3 -31 29 -42 33 -11 55 -7 55 9 0 10 -77 41 -84
33z"/>
<path d="M5508 4129 c-25 -13 -35 -24 -32 -34 5 -13 10 -13 41 0 20 8 37 15
39 15 2 0 4 9 4 20 0 24 -5 24 -52 -1z"/>
<path d="M340 3862 c0 -13 9 -22 24 -26 13 -3 31 -8 39 -12 8 -3 17 2 21 11 6
15 -4 21 -61 39 -19 6 -23 3 -23 -12z"/>
<path d="M5613 3867 c-32 -12 -38 -18 -31 -38 5 -14 83 15 83 31 0 19 -15 20
-52 7z"/>
<path d="M260 3576 c0 -8 12 -17 28 -20 15 -4 35 -9 45 -12 12 -4 17 0 17 14
0 12 -9 22 -22 26 -39 10 -68 7 -68 -8z"/>
<path d="M5673 3583 c-22 -4 -31 -27 -15 -37 15 -9 92 16 92 30 0 14 -29 16
-77 7z"/>
<path d="M220 3290 c0 -17 7 -20 45 -20 53 0 63 24 14 34 -50 10 -59 7 -59
-14z"/>
<path d="M5740 3302 c-40 -4 -52 -12 -42 -29 10 -16 92 -5 92 13 0 17 -9 20
-50 16z"/>
<path d="M516 3150 c-105 -34 -128 -169 -42 -249 35 -33 122 -36 155 -7 21 19
21 19 21 -7 0 -79 -65 -132 -91 -73 -10 21 -16 23 -57 18 -71 -7 -76 -13 -50
-53 35 -51 81 -71 150 -66 67 6 115 32 143 79 15 25 20 56 23 133 3 90 1 104
-20 145 -14 25 -39 53 -56 63 -37 22 -133 31 -176 17z m114 -90 c55 -55 -12
-142 -75 -96 -22 16 -26 76 -6 100 18 22 57 20 81 -4z"/>
<path d="M5369 3151 c-45 -14 -68 -31 -84 -61 -20 -39 -20 -38 23 -45 20 -4
45 -9 54 -11 10 -3 19 3 23 15 11 36 76 39 89 4 9 -21 -20 -63 -43 -63 -21 0
-31 -19 -31 -56 0 -21 5 -24 34 -24 40 0 59 -20 59 -62 0 -59 -71 -80 -100
-29 -15 26 -20 28 -62 23 -70 -7 -75 -13 -49 -52 35 -50 68 -70 129 -77 104
-10 178 30 199 108 13 48 -7 104 -44 120 l-25 12 24 29 c33 39 34 97 3 133
-34 38 -131 56 -199 36z"/>
<path d="M217 2723 c-27 -26 14 -42 71 -27 40 11 26 34 -21 34 -24 0 -47 -3
-50 -7z"/>
<path d="M5697 2716 c-8 -21 2 -26 49 -26 56 0 68 25 16 34 -53 8 -59 8 -65
-8z"/>
<path d="M302 2440 c-40 -9 -49 -17 -35 -31 6 -6 25 -8 47 -4 26 5 36 12 36
26 0 21 0 21 -48 9z"/>
<path d="M5650 2427 c0 -22 81 -39 93 -19 12 18 8 21 -46 28 -39 6 -47 4 -47
-9z"/>
<path d="M358 2157 c-19 -8 -25 -16 -19 -25 7 -11 16 -11 50 -1 42 12 50 32
15 36 -10 1 -31 -3 -46 -10z"/>
<path d="M5577 2163 c-4 -3 -7 -10 -7 -14 0 -10 87 -39 94 -31 15 14 3 30 -33
40 -45 14 -46 14 -54 5z"/>
<path d="M883 1979 c-75 -22 -108 -115 -59 -164 l25 -25 -30 -29 c-25 -26 -29
-37 -29 -86 0 -51 3 -60 33 -90 27 -27 44 -34 90 -40 140 -18 217 32 217 139
0 36 -6 52 -31 81 -17 19 -26 35 -20 35 15 0 41 54 41 84 0 76 -126 127 -237
95z m111 -85 c30 -30 12 -64 -34 -64 -29 0 -50 16 -50 40 0 38 55 54 84 24z
m-8 -152 c26 -17 36 -53 24 -83 -30 -72 -123 -31 -104 47 9 36 52 55 80 36z"/>
<path d="M5000 1834 c-107 -132 -110 -137 -110 -185 l0 -49 110 0 110 0 0 -35
0 -35 50 0 50 0 0 35 c0 32 2 35 30 35 29 0 30 1 30 50 0 49 -1 50 -30 50
l-30 0 0 135 0 135 -50 0 -49 0 -111 -136z m110 -64 l0 -70 -55 0 c-30 0 -55
3 -55 6 0 5 102 132 108 133 1 1 2 -30 2 -69z"/>
<path d="M475 1893 c-39 -20 -36 -18 -29 -36 5 -15 10 -14 46 4 21 11 38 25
36 31 -6 18 -21 18 -53 1z"/>
<path d="M5477 1903 c-14 -13 -6 -23 33 -43 47 -24 46 -24 54 -5 4 10 -7 21
-34 35 -44 22 -44 23 -53 13z"/>
<path d="M5196 1413 c-13 -14 -4 -29 30 -52 30 -21 37 -22 45 -10 6 10 2 19
-14 32 -34 27 -54 37 -61 30z"/>
<path d="M764 1388 c-16 -12 -31 -23 -33 -25 -3 -2 0 -8 6 -14 14 -14 86 27
80 44 -6 19 -23 18 -53 -5z"/>
<path d="M5014 1186 c-7 -19 0 -30 35 -55 23 -16 31 -18 39 -8 8 9 0 21 -29
45 -31 27 -40 30 -45 18z"/>
<path d="M944 1167 c-19 -16 -25 -29 -21 -41 6 -16 10 -15 40 10 17 15 32 32
32 37 0 20 -23 17 -51 -6z"/>
<path d="M1670 1100 l0 -50 100 0 c55 0 100 -2 100 -5 0 -2 -12 -21 -26 -42
-43 -64 -73 -129 -89 -195 -21 -91 -23 -88 43 -88 l58 0 12 72 c15 84 56 176
106 235 29 33 36 50 36 82 l0 41 -170 0 -170 0 0 -50z"/>
<path d="M4035 1039 c-9 -61 -13 -115 -8 -119 14 -14 87 -14 115 -1 57 29 107
-15 93 -81 -12 -53 -84 -63 -107 -14 -10 23 -15 24 -67 19 -31 -3 -57 -7 -59
-8 -11 -9 41 -83 70 -100 47 -28 159 -28 208 0 70 42 98 152 54 213 -40 54
-119 75 -185 48 -13 -6 -15 -1 -11 24 l4 30 99 0 99 0 0 50 0 50 -144 0 -144
0 -17 -111z"/>
<path d="M1147 962 c-29 -30 -35 -52 -14 -52 19 0 70 57 63 69 -11 17 -20 13
-49 -17z"/>
<path d="M4810 978 c1 -7 13 -28 29 -46 22 -26 30 -30 39 -19 8 9 5 21 -14 45
-26 32 -54 43 -54 20z"/>
<path d="M2969 821 c-86 -28 -119 -88 -119 -217 0 -159 51 -219 187 -219 57 0
77 4 100 21 88 65 79 196 -18 247 -40 21 -101 17 -130 -9 -18 -16 -19 -16 -19
9 0 79 65 132 91 73 10 -21 16 -23 57 -18 70 7 75 12 52 49 -10 18 -30 39 -44
48 -29 19 -119 28 -157 16z m96 -245 c13 -9 19 -26 19 -51 0 -60 -53 -86 -94
-45 -55 55 12 142 75 96z"/>
<path d="M4595 808 c-7 -18 34 -89 50 -85 20 7 14 33 -14 67 -25 29 -31 32
-36 18z"/>
<path d="M1370 775 c-19 -31 -20 -55 -2 -55 13 0 54 69 47 79 -11 19 -23 12
-45 -24z"/>
<path d="M1870 489 c-18 -35 -19 -40 -5 -45 19 -8 21 -7 39 38 14 32 14 37 1
42 -10 4 -22 -8 -35 -35z"/>
<path d="M4102 521 c-11 -6 -10 -16 4 -49 16 -43 31 -53 40 -29 4 11 -21 87
-29 87 -1 0 -8 -4 -15 -9z"/>
<path d="M2144 407 c-10 -27 -9 -70 3 -74 10 -4 33 52 33 80 0 12 -30 8 -36
-6z"/>
<path d="M3830 406 c0 -22 21 -76 30 -76 17 0 21 21 10 55 -11 34 -40 49 -40
21z"/>
<path d="M2415 309 c-5 -30 -3 -44 6 -50 11 -6 17 2 25 34 12 46 10 57 -11 57
-8 0 -16 -17 -20 -41z"/>
<path d="M3556 313 c9 -52 16 -64 33 -54 20 12 1 85 -22 89 -16 3 -17 -1 -11
-35z"/>
<path d="M2698 255 c-2 -30 1 -46 10 -50 14 -5 17 2 27 58 5 32 3 37 -14 37
-15 0 -20 -8 -23 -45z"/>
<path d="M3270 260 c0 -27 5 -43 15 -47 24 -8 28 1 20 46 -9 56 -35 56 -35 1z"/>
</g>
</svg>
